<svg width="182" height="38" viewBox="0 0 182 38" fill="none" xmlns="http://www.w3.org/2000/svg">
<path d="M49.2453 21.1169C47.9247 21.1169 46.7291 20.7809 45.6586 20.1089C44.5881 19.4369 43.7441 18.5226 43.1268 17.3739C42.5095 16.2252 42.1969 14.9359 42.1969 13.5137C42.1969 12.0915 42.5095 10.771 43.1268 9.62227C43.7441 8.47359 44.5959 7.55933 45.6586 6.87168C46.7291 6.19185 47.9247 5.84803 49.2453 5.84803C50.3627 5.84803 51.3551 6.09027 52.2225 6.56693C53.0899 7.04359 53.7775 7.69999 54.2855 8.5361C54.7934 9.37222 55.0512 10.3177 55.0512 11.3726V15.5845C55.0512 16.6394 54.8012 17.5927 54.3011 18.421C53.801 19.2571 53.1133 19.9135 52.2381 20.3902C51.363 20.8669 50.3627 21.1091 49.2453 21.1091V21.1169ZM49.8001 17.9444C51.0426 17.9444 52.0428 17.5302 52.8086 16.6941C53.5744 15.858 53.9494 14.7952 53.9494 13.4903C53.9494 12.6151 53.7775 11.8415 53.4337 11.1695C53.0899 10.4975 52.6054 9.97391 51.9803 9.59883C51.363 9.22375 50.6284 9.03621 49.8001 9.03621C48.9718 9.03621 48.2685 9.22375 47.6512 9.59883C47.0339 9.97391 46.5416 10.4975 46.1822 11.1695C45.8227 11.8415 45.6508 12.6151 45.6508 13.4903C45.6508 14.3655 45.8305 15.1391 46.1822 15.8111C46.5338 16.4831 47.0261 17.0067 47.6512 17.3817C48.2685 17.7568 48.9874 17.9444 49.8001 17.9444ZM53.7385 20.8122V16.8738L54.3167 13.3027L53.7385 9.76292V6.16059H57.0986V20.8122H53.7385Z" fill="white"/>
<path d="M66.3426 21.1169C64.897 21.1169 63.592 20.7809 62.4199 20.1089C61.2477 19.4369 60.3257 18.5226 59.6536 17.3583C58.9816 16.194 58.6456 14.9047 58.6456 13.4825C58.6456 12.0603 58.9816 10.7397 59.6536 9.59101C60.3257 8.44233 61.2477 7.52807 62.4199 6.85605C63.592 6.18403 64.897 5.84803 66.3426 5.84803C67.4834 5.84803 68.5462 6.06682 69.5308 6.50442C70.5153 6.94201 71.3593 7.56715 72.0469 8.37982L69.8511 10.6069C69.4214 10.0989 68.9056 9.71604 68.3117 9.46599C67.7101 9.20812 67.0537 9.08309 66.3426 9.08309C65.5065 9.08309 64.7719 9.27063 64.1312 9.64571C63.4904 10.0208 62.9903 10.5365 62.6387 11.1851C62.2792 11.8337 62.1073 12.5995 62.1073 13.4747C62.1073 14.3498 62.287 15.0844 62.6387 15.7486C62.9981 16.4128 63.4904 16.9285 64.1312 17.3036C64.7719 17.6787 65.5065 17.8662 66.3426 17.8662C67.0537 17.8662 67.7101 17.7412 68.3117 17.4833C68.9134 17.2255 69.4292 16.8504 69.8511 16.3346L72.0469 18.5617C71.3515 19.3744 70.5153 19.9995 69.5308 20.4371C68.5462 20.8747 67.4834 21.0935 66.3426 21.0935V21.1169Z" fill="white"/>
<path d="M79.6813 21.1169C78.2357 21.1169 76.9307 20.7809 75.7586 20.1089C74.5864 19.4369 73.6644 18.5226 72.9924 17.3583C72.3203 16.194 71.9843 14.9047 71.9843 13.4825C71.9843 12.0603 72.3203 10.7397 72.9924 9.59101C73.6644 8.44233 74.5864 7.52807 75.7586 6.85605C76.9307 6.18403 78.2357 5.84803 79.6813 5.84803C80.8222 5.84803 81.8849 6.06682 82.8695 6.50442C83.854 6.94201 84.698 7.56715 85.3856 8.37982L83.1898 10.6069C82.7601 10.0989 82.2443 9.71604 81.6505 9.46599C81.0488 9.20812 80.3924 9.08309 79.6813 9.08309C78.8452 9.08309 78.1106 9.27063 77.4699 9.64571C76.8291 10.0208 76.329 10.5365 75.9774 11.1851C75.6179 11.8337 75.446 12.5995 75.446 13.4747C75.446 14.3498 75.6257 15.0844 75.9774 15.7486C76.3368 16.4128 76.8291 16.9285 77.4699 17.3036C78.1106 17.6787 78.8452 17.8662 79.6813 17.8662C80.3924 17.8662 81.0488 17.7412 81.6505 17.4833C82.2521 17.2255 82.7679 16.8504 83.1898 16.3346L85.3856 18.5617C84.6902 19.3744 83.854 19.9995 82.8695 20.4371C81.8849 20.8747 80.8222 21.0935 79.6813 21.0935V21.1169Z" fill="white"/>
<path d="M92.9887 21.1169C91.5666 21.1169 90.2694 20.7731 89.1129 20.0933C87.9564 19.4134 87.0343 18.4914 86.3467 17.327C85.6669 16.1627 85.323 14.8734 85.323 13.4512C85.323 12.029 85.6669 10.7475 86.3467 9.60664C87.0265 8.46577 87.9486 7.55933 89.1129 6.87168C90.2694 6.19185 91.5666 5.84803 92.9887 5.84803C94.4109 5.84803 95.7393 6.18403 96.8958 6.85605C98.0523 7.52807 98.9744 8.44233 99.662 9.59101C100.342 10.7397 100.686 12.029 100.686 13.4512C100.686 14.8734 100.342 16.1705 99.662 17.327C98.9822 18.4835 98.0601 19.4056 96.8958 20.0933C95.7315 20.7809 94.4344 21.1169 92.9887 21.1169ZM92.9887 17.8818C93.8249 17.8818 94.5594 17.6943 95.2001 17.3192C95.8409 16.9441 96.341 16.4206 96.6927 15.7486C97.0521 15.0766 97.224 14.3108 97.224 13.459C97.224 12.6073 97.0443 11.8493 96.677 11.2007C96.3098 10.5522 95.8097 10.0364 95.1845 9.66135C94.5516 9.28627 93.817 9.09872 92.9887 9.09872C92.1604 9.09872 91.4493 9.28627 90.8086 9.66135C90.1678 10.0364 89.6677 10.5522 89.3161 11.2007C88.9566 11.8493 88.7847 12.6073 88.7847 13.459C88.7847 14.3108 88.9644 15.0766 89.3161 15.7486C89.6677 16.4206 90.1678 16.9441 90.8086 17.3192C91.4493 17.6943 92.1761 17.8818 92.9887 17.8818Z" fill="white"/>
<path d="M108.25 21.1169C107.008 21.1169 105.906 20.8434 104.937 20.2964C103.968 19.7494 103.218 18.9915 102.678 18.0225C102.139 17.0535 101.866 15.9439 101.866 14.678V6.16059H105.226V14.5218C105.226 15.2328 105.343 15.8423 105.578 16.3346C105.812 16.8347 106.156 17.2176 106.617 17.4833C107.078 17.749 107.617 17.8818 108.25 17.8818C109.227 17.8818 109.977 17.5927 110.493 17.0145C111.008 16.4362 111.274 15.6079 111.274 14.5296V6.16841H114.634V14.6858C114.634 15.9674 114.361 17.0926 113.821 18.0616C113.282 19.0305 112.532 19.7807 111.579 20.3199C110.625 20.859 109.516 21.1325 108.25 21.1325V21.1169Z" fill="white"/>
<path d="M116.799 20.8122V6.16059H120.159V20.8122H116.799ZM126.84 20.8122V12.3572C126.84 11.3805 126.528 10.5756 125.911 9.94266C125.293 9.30971 124.488 8.99714 123.512 8.99714C122.863 8.99714 122.277 9.13779 121.769 9.42692C121.261 9.71604 120.863 10.1068 120.581 10.6147C120.3 11.1226 120.151 11.7008 120.151 12.3572L118.839 11.6227C118.839 10.5053 119.081 9.51287 119.573 8.6455C120.058 7.77813 120.738 7.0983 121.605 6.59819C122.472 6.09809 123.441 5.84803 124.52 5.84803C125.598 5.84803 126.598 6.12933 127.45 6.68414C128.302 7.24676 128.974 7.96566 129.466 8.84867C129.958 9.73167 130.201 10.6537 130.201 11.6149V20.8043H126.84V20.8122Z" fill="white"/>
<path d="M130.935 9.21592V6.16058H141.312V9.21592H130.935ZM134.443 20.8121V0.057721H137.803V20.8121H134.443Z" fill="white"/>
<path d="M142.531 20.8122V6.16059H145.891V20.8122H142.531ZM145.891 12.662L144.734 12.0837C144.734 10.2318 145.149 8.73146 145.969 7.58277C146.79 6.43409 148.04 5.85584 149.712 5.85584C150.447 5.85584 151.103 5.98869 151.697 6.25437C152.283 6.52005 152.838 6.94983 153.346 7.53589L151.15 9.79419C150.884 9.51288 150.587 9.30971 150.267 9.18468C149.939 9.05965 149.564 9.00495 149.134 9.00495C148.196 9.00495 147.422 9.30189 146.813 9.88795C146.203 10.4818 145.899 11.4039 145.899 12.662H145.891Z" fill="white"/>
<path d="M160.12 21.1169C158.651 21.1169 157.338 20.7887 156.166 20.1245C154.994 19.4603 154.072 18.5539 153.392 17.3896C152.712 16.2252 152.368 14.9281 152.368 13.4825C152.368 12.0369 152.704 10.7397 153.376 9.59101C154.048 8.44233 154.955 7.52807 156.111 6.85605C157.268 6.18403 158.542 5.84803 159.94 5.84803C161.339 5.84803 162.511 6.1606 163.558 6.79355C164.605 7.4265 165.434 8.28605 166.028 9.38784C166.629 10.4896 166.926 11.7399 166.926 13.1386C166.926 13.3809 166.911 13.6309 166.879 13.8888C166.848 14.1467 166.801 14.4202 166.739 14.7249H154.713V11.9743H165.004L163.754 13.0761C163.715 12.1775 163.543 11.4273 163.238 10.8178C162.933 10.2083 162.503 9.73948 161.941 9.41129C161.378 9.08309 160.691 8.92681 159.878 8.92681C159.026 8.92681 158.284 9.10654 157.651 9.4738C157.018 9.84107 156.533 10.3568 156.182 11.0132C155.838 11.6774 155.666 12.4666 155.666 13.3809C155.666 14.2951 155.846 15.1 156.213 15.7955C156.58 16.4909 157.096 17.0223 157.768 17.3974C158.44 17.7724 159.214 17.96 160.089 17.96C160.839 17.96 161.542 17.8271 162.183 17.5615C162.824 17.2958 163.371 16.9129 163.816 16.3972L165.949 18.5617C165.238 19.3978 164.371 20.0307 163.355 20.4527C162.339 20.8825 161.261 21.0935 160.12 21.0935V21.1169Z" fill="white"/>
<path d="M175.194 21.1169C173.725 21.1169 172.412 20.7887 171.24 20.1245C170.068 19.4603 169.145 18.5539 168.466 17.3896C167.786 16.2252 167.442 14.9281 167.442 13.4825C167.442 12.0369 167.778 10.7397 168.45 9.59101C169.122 8.44233 170.028 7.52807 171.185 6.85605C172.341 6.18403 173.615 5.84803 175.014 5.84803C176.413 5.84803 177.585 6.1606 178.632 6.79355C179.679 7.4265 180.507 8.28605 181.101 9.38784C181.703 10.4896 182 11.7399 182 13.1386C182 13.3809 181.984 13.6309 181.953 13.8888C181.922 14.1467 181.875 14.4202 181.812 14.7249H169.786V11.9743H180.078L178.827 13.0761C178.788 12.1775 178.616 11.4273 178.312 10.8178C178.007 10.2083 177.577 9.73948 177.014 9.41129C176.452 9.08309 175.764 8.92681 174.951 8.92681C174.1 8.92681 173.357 9.10654 172.724 9.4738C172.091 9.84107 171.607 10.3568 171.255 11.0132C170.911 11.6774 170.74 12.4666 170.74 13.3809C170.74 14.2951 170.919 15.1 171.287 15.7955C171.654 16.4909 172.17 17.0223 172.842 17.3974C173.514 17.7724 174.287 17.96 175.162 17.96C175.913 17.96 176.616 17.8271 177.257 17.5615C177.897 17.2958 178.444 16.9129 178.89 16.3972L181.023 18.5617C180.312 19.3978 179.445 20.0307 178.429 20.4527C177.413 20.8825 176.335 21.0935 175.194 21.0935V21.1169Z" fill="white"/>
<g filter="url(#filter0_d_750_1522)">
<rect x="2.34449" y="2.34425" width="29.6938" height="21.9954" rx="3.89283" fill="#D9D9D9"/>
</g>
<path d="M10.2419 14.3713H25.0415V16.5899C25.0415 17.1966 24.5499 17.6882 23.9432 17.6882H9.14371V15.4696C9.14371 14.8629 9.63526 14.3713 10.2419 14.3713Z" fill="#2B5026"/>
<g filter="url(#filter1_d_750_1522)">
<path d="M10.0169 9.83117L24.6629 7.70499L24.9816 9.90058C25.0688 10.501 24.653 11.058 24.0526 11.1452L9.40656 13.2714L9.08782 11.0758C9.00066 10.4754 9.41649 9.91833 10.0169 9.83117Z" fill="#2B5026"/>
</g>
<defs>
<filter id="filter0_d_750_1522" x="0.000242163" y="-2.8715e-06" width="45.3226" height="37.6238" filterUnits="userSpaceOnUse" color-interpolation-filters="sRGB">
<feFlood flood-opacity="0" result="BackgroundImageFix"/>
<feColorMatrix in="SourceAlpha" type="matrix" values="0 0 0 0 0 0 0 0 0 0 0 0 0 0 0 0 0 0 127 0" result="hardAlpha"/>
<feOffset dx="5.44996" dy="5.44996"/>
<feGaussianBlur stdDeviation="3.89283"/>
<feColorMatrix type="matrix" values="0 0 0 0 0.137255 0 0 0 0 0.121569 0 0 0 0 0.12549 0 0 0 0.13 0"/>
<feBlend mode="normal" in2="BackgroundImageFix" result="effect1_dropShadow_750_1522"/>
<feBlend mode="normal" in="SourceGraphic" in2="effect1_dropShadow_750_1522" result="shape"/>
</filter>
<filter id="filter1_d_750_1522" x="6.73183" y="5.36074" width="31.5458" height="21.1947" filterUnits="userSpaceOnUse" color-interpolation-filters="sRGB">
<feFlood flood-opacity="0" result="BackgroundImageFix"/>
<feColorMatrix in="SourceAlpha" type="matrix" values="0 0 0 0 0 0 0 0 0 0 0 0 0 0 0 0 0 0 127 0" result="hardAlpha"/>
<feOffset dx="5.44996" dy="5.44996"/>
<feGaussianBlur stdDeviation="3.89283"/>
<feColorMatrix type="matrix" values="0 0 0 0 0.137255 0 0 0 0 0.121569 0 0 0 0 0.12549 0 0 0 0.13 0"/>
<feBlend mode="normal" in2="BackgroundImageFix" result="effect1_dropShadow_750_1522"/>
<feBlend mode="normal" in="SourceGraphic" in2="effect1_dropShadow_750_1522" result="shape"/>
</filter>
</defs>
</svg>
