<svg width="33" height="32" viewBox="0 0 33 32" fill="none" xmlns="http://www.w3.org/2000/svg">
<path d="M15.5831 4.79585C16.4835 4.0692 17.6268 3.62401 19.0128 3.46026C20.4083 3.28887 21.8568 3.51292 23.3584 4.1324C24.86 4.75188 26.2074 5.80096 27.4006 7.27964C28.5097 8.65406 29.2328 10.0739 29.57 11.539C29.9166 12.9966 29.8834 14.3615 29.4703 15.634C29.0649 16.9159 28.3503 17.9699 27.3266 18.7959C26.5209 19.4461 25.6809 19.8501 24.8065 20.0078C23.9398 20.1751 23.1001 20.211 22.2875 20.1155C21.492 20.0219 20.1025 19.8128 18.119 19.4883C17.5651 19.4031 17.0941 19.3528 16.706 19.3373C16.335 19.3237 16.0164 19.3459 15.7504 19.4041C15.4938 19.4547 15.2478 19.528 15.0123 19.6241C14.794 19.722 14.4105 19.9063 13.8619 20.1768C12.7308 20.7922 11.7828 20.6259 11.0179 19.6781C10.6201 19.1852 10.4447 18.6381 10.4916 18.0368C10.5462 17.445 10.891 16.8928 11.5261 16.3803C12.3223 15.7378 13.109 15.3065 13.886 15.0864C14.6726 14.8586 15.4483 14.7726 16.2133 14.8283C16.9877 14.8764 17.9574 15.0016 19.1224 15.2041C20.1427 15.3824 20.8927 15.4971 21.3722 15.5484C21.8689 15.6014 22.3558 15.5841 22.8329 15.4965C23.3177 15.4184 23.7543 15.2225 24.143 14.9089C24.9013 14.297 25.3116 13.4963 25.374 12.5069C25.444 11.527 25.1196 10.5915 24.4006 9.70052C23.5592 8.65786 22.6742 8.10425 21.7457 8.0397C20.8266 7.9675 19.7175 8.17382 18.4185 8.65867C17.0873 9.20072 16.0584 9.0215 15.3318 8.12102C14.9034 7.59021 14.7249 6.99082 14.7963 6.32284C14.8848 5.6567 15.147 5.1477 15.5831 4.79585ZM5.59904 24.3091C5.13246 23.7309 4.90808 23.0746 4.9259 22.3403C4.96084 21.6078 5.31481 20.97 5.9878 20.4269C6.58496 19.945 7.25561 19.7482 7.99975 19.8363C8.74388 19.9245 9.36072 20.2719 9.85025 20.8785C10.3321 21.4757 10.5337 22.1425 10.455 22.879C10.3764 23.6155 10.0384 24.2247 9.44129 24.7066C8.77777 25.242 8.08434 25.4494 7.36099 25.3288C6.63764 25.2082 6.05033 24.8683 5.59904 24.3091Z" fill="#2B4F26"/>
</svg>
